<svg height="443" viewBox="0 0 677 443" width="677" xmlns="http://www.w3.org/2000/svg"><g fill="none"><path d="m86.162 304-1.162-.261c12.961-57.502 45.535-109.718 91.72-147.031 70.984-57.26 166.543-73.973 252.82-44.217s151.084 101.777 171.46 190.546l-1.161.264c-27.439-120.178-133.02-204.113-256.76-204.113-122.116 0-230.166 86.136-256.917 204.812z" fill="#3f3d56"/><circle cx="535.5" cy="131.5" fill="#ff6584" r="32.5"/><path d="m522 260h1v47h-1z" fill="#3f3d56"/><path d="m534 265.946c.075 16.569-11.364 30.054-11.364 30.054s-11.56-13.377-11.636-29.946c-.075-16.569 11.364-30.054 11.364-30.054s11.56 13.377 11.636 29.946z" fill="#0dc4d0"/><path d="m534 265.946c.075 16.569-11.364 30.054-11.364 30.054s-11.56-13.377-11.636-29.946c-.075-16.569 11.364-30.054 11.364-30.054s11.56 13.377 11.636 29.946z" fill="#000" opacity=".1"/><g fill="#0dc4d0"><circle cx="298.5" cy="148.5" opacity=".4" r="18.5"/><circle cx="264" cy="156" opacity=".4" r="13"/><circle cx="124" cy="195" opacity=".4" r="13"/><circle cx="509.5" cy="146.5" opacity=".4" r="18.5"/></g><path d="m33.31 302.187c1.03 3.59 4.552 5.813 4.552 5.813s1.856-3.597.827-7.187c-1.028-3.59-4.551-5.813-4.551-5.813s-1.856 3.597-.827 7.187z" fill="#3f3d56"/><path d="m34.901 300.994c2.762 2.761 3.099 7.006 3.099 7.006s-4.14-.232-6.901-2.994c-2.762-2.761-3.099-7.006-3.099-7.006s4.14.232 6.901 2.994z" fill="#0dc4d0"/><path d="m398.31 302.187c1.03 3.59 4.552 5.813 4.552 5.813s1.856-3.597.827-7.187c-1.028-3.59-4.551-5.813-4.551-5.813s-1.856 3.597-.827 7.187z" fill="#3f3d56"/><path d="m399.901 300.994c2.762 2.761 3.099 7.006 3.099 7.006s-4.14-.232-6.901-2.994c-2.762-2.761-3.099-7.006-3.099-7.006s4.14.232 6.901 2.994z" fill="#0dc4d0"/><path d="m40.46 274.049-2.46-4.146 22.96-19.903h59.04v5.805l-21.32 23.22-24.6 4.975z" fill="#3f3d56"/><path d="m130.14 261.9v-12.9h-7.712v4.068l-2.428-2.78-19.636 19.787-3.273 3.298-4.091 16.49 7.364 18.137h37.636v-37.1z" fill="#ccc"/><path d="m38 270h62v37h-62z" fill="#f2f2f2"/><path d="m79 281h13v12h-13z" fill="#3f3d56"/><path d="m61 281h12v27h-12z" fill="#ccc"/><path d="m49 286v-4h-5v4h4.583zm-.417 3h-4.583v4h5v-4zm3.417-7h5v4h-5zm0 7h5v4h-5zm66-3v-4h-5v4h4.583zm-.417 3h-4.583v4h5v-4zm3.417-7h5v4h-5zm0 7h5v4h-5zm157.46-14.951-2.46-4.146 22.96-19.903h59.04v5.805l-21.32 23.22-24.6 4.975z" fill="#3f3d56"/><path d="m368.14 261.9v-12.9h-7.712v4.068l-2.428-2.78-19.636 19.787-3.273 3.298-4.091 16.49 7.364 18.137h37.636v-37.1z" fill="#ccc"/><path d="m276 270h62v37h-62z" fill="#f2f2f2"/><path d="m317 281h13v12h-13z" fill="#3f3d56"/><path d="m299 281h12v27h-12z" fill="#ccc"/><path d="m287 286v-4h-5v4h4.583zm-.417 3h-4.583v4h5v-4zm3.417-7h5v4h-5zm0 7h5v4h-5zm66-3v-4h-5v4h4.583zm-.417 3h-4.583v4h5v-4zm3.417-7h5v4h-5zm0 7h5v4h-5zm-191.91-84.472-4.09-3.245 22.91-20.283h58.09v17.849l-37.636 25.151z" fill="#3f3d56"/><path d="m254.992 192.474v-11.064h-7.68v2.71l-2.869-3.12-18.74 20.455-7.333 4.909-11.37 83.417 17.148 17.219h39.852v-104.727z" fill="#ccc"/><path d="m163 202h62v106h-62z" fill="#f2f2f2"/><path d="m187 281h12v26h-12z" fill="#ccc"/><path d="m174 289v-4h-5v4h4.584zm-.416 3h-4.584v4h5v-4zm4.416-7h5v4h-5zm0 7h5v4h-5zm31-3v-4h-5v4h4.584zm-.416 3h-4.584v4h5v-4zm3.416-7h5v4h-5zm0 7h5v4h-5zm31-85v-4h-5v4h4.584zm-.416 3h-4.584v4h5v-4zm3.416-7h5v4h-5zm0 7h5v4h-5zm-3 20v-4h-5v4h4.584zm-.416 3h-4.584v4h5v-4zm3.416-7h5v4h-5zm0 7h5v4h-5zm-3 20v-4h-5v4h4.584zm-.416 4h-4.584v4h5v-4zm3.416-8h5v4h-5zm0 8h5v4h-5zm-3 19v-4h-5v4h4.584zm-.416 3h-4.584v4h5v-4zm3.416-7h5v4h-5zm0 7h5v4h-5zm-76-72h47v10h-47zm0 20h47v10h-47zm0 20h47v10h-47zm0 19h47v10h-47zm237.09-61.472-4.09-3.245 22.91-20.283h58.09v17.849l-37.636 25.151z" fill="#3f3d56"/><path d="m494.992 192.474v-11.064h-7.68v2.71l-2.869-3.12-18.74 20.455-7.333 4.909-11.37 83.417 17.148 17.219h39.852v-104.727z" fill="#ccc"/><path d="m403 202h62v106h-62z" fill="#f2f2f2"/><path d="m427 281h12v26h-12z" fill="#ccc"/><path d="m415 289v-4h-5v4h4.584zm-.416 3h-4.584v4h5v-4zm3.416-7h5v4h-5zm0 7h5v4h-5zm31-3v-4h-5v4h4.584zm-.416 3h-4.584v4h5v-4zm3.416-7h5v4h-5zm0 7h5v4h-5zm31-85v-4h-5v4h4.584zm-.416 3h-4.584v4h5v-4zm3.416-7h5v4h-5zm0 7h5v4h-5zm-3 20v-4h-5v4h4.584zm-.416 3h-4.584v4h5v-4zm3.416-7h5v4h-5zm0 7h5v4h-5zm-3 20v-4h-5v4h4.584zm-.416 4h-4.584v4h5v-4zm3.416-8h5v4h-5zm0 8h5v4h-5zm-3 19v-4h-5v4h4.584zm-.416 3h-4.584v4h5v-4zm3.416-7h5v4h-5zm0 7h5v4h-5zm-75-72h47v10h-47zm0 20h47v10h-47zm0 20h47v10h-47zm0 19h47v10h-47zm127.09-61.472-4.09-3.245 22.91-20.283h58.09v17.849l-37.636 25.151z" fill="#3f3d56"/><path d="m625.992 192.474v-11.064h-7.68v2.71l-2.869-3.12-18.74 20.455-7.333 4.909-11.37 83.417 17.148 17.219h39.852v-104.727z" fill="#ccc"/><path d="m534 202h62v106h-62z" fill="#f2f2f2"/><path d="m558 281h12v26h-12z" fill="#ccc"/><path d="m547 289v-4h-5v4h4.584zm-.416 3h-4.584v4h5v-4zm3.416-7h5v4h-5zm0 7h5v4h-5zm30-3v-4h-5v4h4.584zm-.416 3h-4.584v4h5v-4zm3.416-7h5v4h-5zm0 7h5v4h-5zm32-85v-4h-5v4h4.584zm-.416 3h-4.584v4h5v-4zm3.416-7h5v4h-5zm0 7h5v4h-5zm-3 20v-4h-5v4h4.584zm-.416 3h-4.584v4h5v-4zm3.416-7h5v4h-5zm0 7h5v4h-5zm-3 20v-4h-5v4h4.584zm-.416 4h-4.584v4h5v-4zm3.416-8h5v4h-5zm0 8h5v4h-5zm-3 19v-4h-5v4h4.584zm-.416 3h-4.584v4h5v-4zm3.416-7h5v4h-5zm0 7h5v4h-5zm-76-72h47v10h-47zm0 20h47v10h-47zm0 20h47v10h-47zm0 19h47v10h-47zm-542 41h677v1h-677zm150-47h1v47h-1z" fill="#3f3d56"/><path d="m162 265.946c.075 16.569-11.364 30.054-11.364 30.054s-11.56-13.377-11.636-29.946c-.075-16.569 11.364-30.054 11.364-30.054s11.56 13.377 11.636 29.946z" fill="#0dc4d0"/><path d="m269 260h1v47h-1z" fill="#3f3d56"/><path d="m281 265.946c.075 16.569-11.364 30.054-11.364 30.054s-11.56-13.377-11.636-29.946c-.075-16.569 11.364-30.054 11.364-30.054s11.56 13.377 11.636 29.946z" fill="#0dc4d0"/><path d="m507 260h1v47h-1z" fill="#3f3d56"/><path d="m519 265.946c.075 16.569-11.364 30.054-11.364 30.054s-11.56-13.377-11.636-29.946c-.075-16.569 11.364-30.054 11.364-30.054s11.56 13.377 11.636 29.946z" fill="#0dc4d0"/><ellipse cx="349.5" cy="97" fill="#0dc4d0" rx="22.5" ry="5"/><path d="m375 26.015c0 14.367-26 54.985-26 54.985s-26-40.618-26-54.985c0-14.368 11.64-26.015 26-26.015s26 11.647 26 26.015z" fill="#0dc4d0"/><circle cx="349" cy="27" fill="#f2f2f2" r="15"/><g transform="matrix(-1 0 0 1 605 70)"><g fill="#3f3d56"><ellipse cx="94.5" cy="20.5" rx="21.5" ry="16.5"/><ellipse cx="138" cy="77.5" rx="31" ry="30.5"/><circle cx="235.5" cy="351.5" r="7.5"/><circle cx="195.5" cy="351.5" r="7.5"/><path d="m204 166h3v95h-3zm19 0h3v95h-3z"/><path d="m204.87 167-.87-2.499s9.548-10.83 23-2.1l-.87 3.754h-3.472s-5.638-4.54-15.186.646l-2.603.199z"/></g><path d="m116 152h31v40h-31zm43-11h10v19h-10z" fill="#fbbebe"/><path d="m120.05 343.879-3.804 11.844s-1.694 8.77 3.805 9.207c5.498.437 14.385-1.315 14.385-1.315s1.268-3.946 0-7.456-5.072-13.159-5.072-13.159l-9.313.879zm29.084 1.121s-6.08 15.244-1.303 17.857c4.777 2.612 11.295.433 16.504 2.612 5.21 2.178 19.54-3.046 19.54-3.046s1.741-4.79-7.813-6.097c0 0-10.397-7.841-10.397-9.581s-6.08-1.745-6.08-1.745z" fill="#3c354c"/><path d="m148.337 172.84s-35.225 7.312-39.518 5.16-8.59 29.268-8.59 29.268-1.722 18.927 4.292 44.304 0 37.854 0 37.854.86 24.087 7.308 35.274c6.447 11.187 6.442 21.507 6.442 21.507s12.45 1.29 12.89-1.724c0 0-5.16-12.043-4.299-23.225.86-11.181-2.577-32.694-2.577-32.694s5.587-27.1 4.726-37.398c-.86-10.298 3.01-32.26 5.154-28.39 2.143 3.87 7.735 22.796 7.735 26.672 0 3.875 2.166 29.674 3.438 31.398s.855 6.884.427 9.464c-.427 2.58-.427 21.935 1.716 32.26 2.144 10.325.434 21.935.861 23.659.428 1.723 12.89.428 13.317-2.586 0 0 1.722-18.493 2.582-21.073.861-2.58 1.267-35.317 1.267-35.317s.855-25.377 1.716-27.957c.86-2.58 2.165-58.07-3.437-64.5-5.603-6.427-3.438-22.796-3.438-22.796z" fill="#3f3d56"/><path d="m119.098 98.15c-1.577 2.994-3.165 6.015-4.152 9.262-.987 3.248-1.33 6.766-.402 10.03a24.939 24.939 0 0 0 2.746 5.783 19.822 19.822 0 0 0 3.471 4.669c3.219 2.961 7.897 3.556 12.242 4.02a6.157 6.157 0 0 0 2.248-.037 4.24 4.24 0 0 0 1.61-.887c1.904-1.62 2.768-4.096 3.465-6.484a107.69 107.69 0 0 0 3.551-17.37c.164-.929.164-1.88 0-2.81-.375-1.62-1.663-2.88-2.596-4.274a10.954 10.954 0 0 1 -1.846-5.62c-.037-.978 0-2.06-.611-2.805a3.75 3.75 0 0 0 -1.443-.897c-2.538-1.08-5.07-2.162-7.613-3.2-1.534-.637-4.291-2.334-5.9-1.08-1.38 1.08-.714 3.588-1.304 5.09-.907 2.281-2.328 4.448-3.466 6.61z" fill="#fbbebe"/><path d="m119.098 98.15c-1.577 2.994-3.165 6.015-4.152 9.262-.987 3.248-1.33 6.766-.402 10.03a24.939 24.939 0 0 0 2.746 5.783 19.822 19.822 0 0 0 3.471 4.669c3.219 2.961 7.897 3.556 12.242 4.02a6.157 6.157 0 0 0 2.248-.037 4.24 4.24 0 0 0 1.61-.887c1.904-1.62 2.768-4.096 3.465-6.484a107.69 107.69 0 0 0 3.551-17.37c.164-.929.164-1.88 0-2.81-.375-1.62-1.663-2.88-2.596-4.274a10.954 10.954 0 0 1 -1.846-5.62c-.037-.978 0-2.06-.611-2.805a3.75 3.75 0 0 0 -1.443-.897c-2.538-1.08-5.07-2.162-7.613-3.2-1.534-.637-4.291-2.334-5.9-1.08-1.38 1.08-.714 3.588-1.304 5.09-.907 2.281-2.328 4.448-3.466 6.61z" fill="#000" opacity=".1"/><circle cx="136" cy="84" fill="#fbbebe" r="15"/><path d="m141.126 122.368c-2.835 1.023-5.762 1.905-8.775 2.013a28.941 28.941 0 0 1 -6.71-.72 84.962 84.962 0 0 1 -13.356-3.825c-.928 1.834-1.175 3.928-1.256 5.984-.232 6.217 1.002 12.385 1.477 18.59.598 7.889 0 15.95 2.02 23.59a6.506 6.506 0 0 1 1.445-3.538 8 8 0 0 1 2.42-1.786 19.231 19.231 0 0 1 13.249-1.655c2.593.616 5.347 1.769 7.805.735 1.466-.622 2.528-1.931 3.342-3.305a27.236 27.236 0 0 0 2.92-7.948c1.618-7.164 1.833-14.57 2.028-21.918.053-1.964.894-7.802-.728-9.241-1.137-1-1.472.427-2.29 1.174a10.458 10.458 0 0 1 -3.59 1.85z" fill="#f2f2f2"/><path d="m120.948 95.492c-1.021-.788-2.534-.543-3.66.125s-2.037 1.592-3.18 2.2c-3.169 1.69-7.425.452-10.433 2.419-2.827 1.852-3.313 5.667-3.534 9.003-.552 8.476-1.026 17.011-3.097 25.26-.552 2.173-1.214 4.4-1.004 6.639a17.39 17.39 0 0 0 .916 3.749l2.716 8.351c1.259 3.88 2.534 7.819 2.667 11.888.132 4.07-.84 7.938-1.806 11.823a136.644 136.644 0 0 0 -3.715 23.315c-.171 2.602-.243 5.32.828 7.704 1.104 2.494 3.346 4.347 5.708 5.754 2.363 1.407 4.93 2.494 7.243 3.988 4.643 3.005 8.37 7.737 13.801 8.97 2.49.544 5.096.327 7.602-.151 0 0-1.419-63.419-5.366-72.476s-7.447-48.292-7.447-49.585 1.761-8.976 1.761-8.976zm20.022 3.508s20.066 0 23.037 10.698-8.48 28.244-8.48 28.244 4.665 34.66 6.78 38.084c2.117 3.424 1.278 10.245 1.278 10.245a28.56 28.56 0 0 1 .844 14.559c-1.694 7.7-8.058 21.396-8.058 21.396s-8.48 0-10.602 5.133c-2.121 5.133-2.543-22.253-2.543-22.253s-7.631-50.066-7.21-53.058c.423-2.993 2.544-27.818 3.394-34.666s2.699-15.815 1.56-18.382z" fill="#0dc4d0"/><path d="m156.447 105s9.553 3.015 9.553 6.464c0 3.45 2.924 21.983 2.924 28.017 0 6.035-1.245 6.899 0 9.055 1.245 2.157-13.282 1.293-13.282 1.293l-2.642-24.568z" fill="#0dc4d0"/><path d="m98.72 135.859s19.392 1.247 22.84-1.253c3.447-2.5 18.093 3.328 19.385 6.657 1.292 3.328-20.683 3.742-24.125 3.742s-19.82 4.995-19.82 4.995z" fill="#a0616a"/><path d="m57.705 335.891s-9.054 22.924-4.35 25.653c4.703 2.728 54.3.785 54.3.785s8.26-5.13-1.18-8.689c0 0-7.874-.392-12.985-3.553-5.111-3.16-11.022-9.082-11.022-9.082s-.392-8.689-3.54-6.713a8.113 8.113 0 0 0 -3.54 5.53l-17.683-3.93z" fill="#3f3d56"/><path d="m57.705 335.891s-9.054 22.924-4.35 25.653c4.703 2.728 54.3.785 54.3.785s8.26-5.13-1.18-8.689c0 0-7.874-.392-12.985-3.553-5.111-3.16-11.022-9.082-11.022-9.082s-.392-8.689-3.54-6.713a8.113 8.113 0 0 0 -3.54 5.53l-17.683-3.93z" fill="#000" opacity=".1"/><path d="m44.27 343.077s-9.967 25.232-4.768 28.293c5.2 3.06 59.811.872 59.811.872s9.104-5.655-1.3-9.577c0 0-8.667-.433-14.303-3.916-5.635-3.484-12.134-10.027-12.134-10.027s-.432-9.578-3.9-7.4a8.933 8.933 0 0 0 -3.899 6.094z" fill="#3f3d56"/><path d="m95 184.738-6.143 54.207s-2.211 25.813-8.775 31.402c0 0 0 8.174-2.211 10.754l-3.074 33.988s4.39 12.467 3.953 14.635c-.437 2.169 1.753 9.031 1.316 9.893s-21.066 0-21.066 0l4.39-69.26 13.602-96.357z" fill="#3c354c"/><path d="m95 184.738-6.143 54.207s-2.211 25.813-8.775 31.402c0 0 0 8.174-2.211 10.754l-3.074 33.988s4.39 12.467 3.953 14.635c-.437 2.169 1.753 9.031 1.316 9.893s-21.066 0-21.066 0l4.39-69.26 13.602-96.357z" fill="#000" opacity=".1"/><path d="m85 183.182s-4.746 44.22-6.904 53.665a121.343 121.343 0 0 0 -2.587 18.891s-.43 13.741-4.317 17.604a11.564 11.564 0 0 0 -3.446 8.574s-3.887 43.36-1.729 48.515c2.158 5.156 4.316 9.446 2.175 12.875-2.142 3.43-25.887 3.436-25.887.86 0-2.575 0-4.722-1.294-6.01-1.294-1.287 0-9.445 0-9.445s-5.175-38.21-.43-49.37c4.746-11.16 6.904-41.655 6.904-41.655s-3.451-34.774-7.768-40.357c-4.316-5.583.865-25.329.865-25.329z" fill="#3c354c"/><path d="m72 45.26c.51 1.127 1.737 1.756 2.852 2.352 6.463 3.448 11.872 8.447 17.198 13.388a18.982 18.982 0 0 1 .805-13.227c.632-1.423 1.47-2.96 1.015-4.447-.338-1.074-1.298-1.89-2.219-2.588a69.275 69.275 0 0 0 -6.807-4.495c-1.665-.956-5.038-3.496-6.93-3.222-.1 2.475-.15 4.688-1.27 6.981-.278.57-4.45 5.687-4.644 5.258z" fill="#a0616a"/><circle cx="94" cy="34" fill="#a0616a" r="18"/><path d="m95.795 75.467s3.01-15.087-5.598-20.257a3909.814 3909.814 0 0 1 -18.51-11.204s-3.015-.434-4.306 6.034c0 0-24.536 4.74-27.123 28.012-2.588 23.271 1.725 57.322 1.725 57.322s-3.873 29.74-8.609 45.684c0 0-3.879 3.449 13.344-1.721 17.224-5.17 47.352 14.663 47.352 14.663s3.016-3.02 3.016-5.176 3.444-14.663 3.444-14.663 3.011-53.01 4.302-59.044c1.291-6.033-5.164-38.787-9.037-39.65z" fill="#3f3d56"/><path d="m69.305 105s23.832-13.656 19.065-31.15c-4.767-17.495-15.165-23.038-15.165-23.038s-16.903-5.549-31.205 12.365l.868 8.108s15.602-31.145 32.504-11.522c16.902 19.624-6.067 45.237-6.067 45.237z" fill="#0dc4d0"/><path d="m43 64.208v70.522l-4.441 24.057-2.076 11.213h-15.191l-21.292-7.744v-52.027s17.814-34.841 23.466-41.29c5.652-6.45 19.534-4.731 19.534-4.731z" fill="#0dc4d0"/><path d="m38 159-2.04 11h-14.985l-20.975-7.592z" fill="#000" opacity=".1"/><path d="m38 143.406 37-45.406-32.701 47.14-3.442.86z" fill="#0dc4d0"/><path d="m90.141 35.696c.995-.677 2.242-.802 3.436-.92 1.194-.12 2.441-.282 3.393-1.019 1.65-1.277 1.774-3.747 2.984-5.452 1.747-2.475 5.237-2.772 8.253-2.653 1.844.076 3.828.19 5.377-.812 1.548-1.002 2.312-2.978 2.85-4.803.64-2.166 1.048-4.808-.538-6.411-1.076-1.115-2.818-1.337-4.033-2.317s-1.78-2.664-2.462-4.132a11.173 11.173 0 0 0 -3.576-4.51c-2.29-1.624-5.215-1.96-8.006-1.933-2.79.027-5.591.4-8.36.054-2.27-.281-4.533-1.04-6.791-.704-2.882.428-5.264 2.62-6.689 5.182-1.425 2.561-2.027 5.485-2.618 8.355l-1.613 7.813c-.495 2.426-.995 4.91-.613 7.353.796 5.068 5.247 9.096 5.554 14.213a8.707 8.707 0 0 1 5.29-6.33 1.662 1.662 0 0 1 1.076-.135c.44.146.699.59.979.964.73.98 3.027 2.463 4.3 1.77 1.216-.622.345-2.572 1.807-3.573z" fill="#3f3d56"/><path d="m203.092 254.102s-11.611.428-13.329 13.782c-1.717 13.353 0 75.385 0 75.385s13.33 9.907 29.67 8.615c16.342-1.292 42.567-6.03 42.567-6.03v-72.738c0-10.856-9.038-19.71-19.863-19.085a7.01 7.01 0 0 0 -.775.06l-38.27.01z" fill="#3c354c"/><circle cx="219.5" cy="353.5" fill="#3f3d56" r="7.5"/><circle cx="261.5" cy="350.5" fill="#3f3d56" r="7.5"/><path d="m45.32 116.483s-3.016 19.144 9.467 17.405c0 0 6.461-.872 7.324 0 .862.872 32.718-4.787 37.025-9.574 0 0 5.165-1.738 7.747.872 2.583 2.61 28.417 5.22 20.675-2.616-7.741-7.836-19.801-9.574-19.801-9.574l-16.362.866s-8.61 2.616-13.774 0c-5.165-2.616-19.818-1.71-19.818-1.71z" fill="#a0616a"/><path d="m62.917 56s-18.917 2.174-18.917 30.198v35.802s10.51-4.746 12.613-4.316 10.51-5.61 10.51-5.61 9.667-23.289 8.825-29.758-.418-25.456-13.031-26.316zm88.56 70-19.477 13.715 12.12 1.285 16.88-14.141z" fill="#3f3d56"/><path d="m167.273 146.394s4.883 14.677-1.773 18.983c-6.656 4.305-17.758-15.102-17.758-15.102s-11.987-13.802-3.994-16.824 11.254 10.138 11.254 10.138l10.481 8.844z" fill="#fbbebe"/><ellipse cx="137.5" cy="73" fill="#3f3d56" rx="17.5" ry="11"/><circle cx="140.5" cy="46.5" fill="#3f3d56" r="12.5"/><ellipse cx="94.5" cy="23.5" fill="#3f3d56" rx="16.5" ry="8.5"/><ellipse cx="78.5" cy="24.5" fill="#3f3d56" rx="5.5" ry="14.5"/></g></g></svg>