<svg xmlns="http://www.w3.org/2000/svg" xmlns:xlink="http://www.w3.org/1999/xlink" width="510" height="286" viewBox="0 0 510 286">
    <defs>
        <path id="a" d="M10.123 1.306S6.985 1.164 3.36.072l-3.338.944 9.267 13.409 1.666-1.382s1.283-5.508 3.008-7.105l-1.409.307s1.475-1.384.267-3.128c-1.207-1.743-2.987-.909-2.987-.909l.29-.902"/>
        <path id="c" d="M48.297 12.33c-.11-4.95-33.122-16.524-33.72-9.695-1.274 14.57 2.843 44.395 3.26 52.345.47 8.909 2.825 18.223 2.62 27.06-.271 11.742-1.825 51.8-6.258 75.333-1.635 8.67-16.521 21.915-13.859 22.406 1.712.317 13.636-3.607 18.688-10.614 1.076-1.488.629 10.701 1.47 9.394.707-1.102 2.745-15.744 3.2-16.602 1.318-2.488-.502-6.997.994-12.337 3.735-13.357 11.495-32.562 12.88-42.066 1.125-7.719-2.882-22.582-2.699-23.354 2.395-10.158 8.207-24.516 11-35.294 3.774-14.561 2.691-24.434 2.424-36.577"/>
        <path id="e" d="M.71.763h63.824v84.9H.709z"/>
        <path id="g" d="M9.863 24.508S25.627 73.08 27.42 83.048c.963 5.357 3.286 10.792 3.56 16.257.723 14.26 1.73 54.169.81 63.786-.05.521-2.457 9.134-2.087 14.946.344 5.374 1.913 6.348 2.27 6.862 3.555 5.124 5.883.296 6.404-7.74.376-5.792-.864-15.001-.546-16.292 1.878-7.656 9.7-30.327 10.734-35.169 2.611-12.251-1.23-24.563-5.63-35.353-.882-2.158 3.757-20.186 5.005-39.585 1.076-16.73.565-38.695-19.534-50.235C27.486 0 .606 5.061.606 5.061S2 12.821 9.863 24.508"/>
        <path id="i" d="M5.993 1.228S4.09 3.662 1.076 5.989L.012 9.151l17.004-.405-.265-2.054s-4.1-3.901-4.523-6.115l-.53 1.286S11.32-.037 9.109.016C6.896.071 6.62 1.93 6.62 1.93l-.626-.702"/>
        <path id="k" d="M20.35 2.596c.134-.433.968-2.987-1.752-.978-1.39 1.028-6.151 3.283-12.288 2.372-2.844-.423-3.342-.376-4.892.436-1.076.563-.6 1.657-.957 2.389 17.458 2.188 24.995-.806 25.827-1.247-.195-2.323-1.365-2.2-.88-3.234-.372-.59-3.828-.084-5.058.262z"/>
        <path id="m" d="M20.608 2.596c.135-.433.968-2.987-1.75-.978-1.392 1.028-6.152 3.283-12.29 2.372-2.844-.423-3.341-.376-4.893.436C.6 4.989 1.077 6.083.72 6.815c17.457 2.188 24.994-.806 25.827-1.247-.196-2.323-1.365-2.2-.88-3.234-.374-.59-3.829-.084-5.06.262z"/>
        <path id="o" d="M20.642 2.491c.134-.434.967-2.987-1.751-.979-1.392 1.029-6.151 3.284-12.288 2.372-2.844-.422-3.343-.376-4.894.437C.633 4.883 1.11 5.977.754 6.71 18.21 8.897 25.748 5.904 26.58 5.463c-.195-2.324-1.365-2.201-.88-3.235-.372-.59-3.828-.084-5.058.263z"/>
        <path id="q" d="M19.9 2.491c.134-.434.968-2.987-1.751-.979-1.39 1.029-6.15 3.284-12.289 2.372-2.844-.422-3.341-.376-4.894.437C-.109 4.883.37 5.977.012 6.71c17.456 2.187 24.995-.806 25.827-1.247-.196-2.324-1.366-2.201-.88-3.235-.373-.59-3.83-.084-5.06.263z"/>
    </defs>
    <g fill="none" fill-rule="evenodd">
        <path fill="#503628" d="M439.386 76.44c-9.951-2.12-23.79 3.498-24.488 15.042-.568 9.373-.107 12.467-5.617 15.856-8.438 5.189-6.264 19.156 2.97 21.674 12.921 3.524.185 5.23 19.563 5.941 19.379.713 20.22-6.84 28.796-13.197 7.375-5.465 7.495-20.07-1.587-24.29-9.081-4.218.038-16.833-19.637-21.026"/>
        <path fill="#9D9F9C" d="M470 200l-12 .728L461.193 269l3.335-.036L470 200M416 200l-12 .728L407.192 269l3.337-.036L416 200"/>
        <path fill="#C5CFD6" d="M432.364 120.072s-29.6 7.43-24.693 49.038c0 0-15.026 8.38-12.352 23.96 2.673 15.582 33.568 18.54 42.547 17.835 8.977-.704 38.863-2.124 40.092-22.794.67-11.278-6.937-18.302-6.937-18.302s4.902-52.01-38.657-49.737"/>
        <path fill="#0E222F" d="M423.425 162.308s-24.219 9.64-21.157 25.27c3.06 15.627 21.661 14.728 35.95 14.192 14.293-.536 32.156-1.484 33.665-15.691 1.509-14.207-11.369-26.17-48.458-23.771"/>
        <path fill="#F5BE96" d="M439.523 261.123c1.024-1.482.192 10.854-.562 12.308-.534 1.028-5.629 2.261-5.401 1.098 1.247-6.359-.926-10.895-.505-12.105.567-1.628 5.468.142 6.468-1.3M407.746 241.566c1.824-.464-6.713 8.75-8.285 9.382-1.111.446-6.284-2.11-5.349-2.875 5.105-4.184 6.108-9.293 7.238-9.96 1.52-.9 4.623 3.905 6.396 3.453"/>
        <path fill="#0A090B" d="M396.145 247.204s-3.152-.14-6.793-1.204l-3.352.92 9.306 13.08 1.673-1.348s1.289-5.373 3.021-6.93l-1.415.299s1.481-1.35.268-3.05c-1.212-1.701-2.999-.887-2.999-.887l.29-.88"/>
        <g transform="translate(386 245)">
            <mask id="b" fill="#fff">
                <use xlink:href="#a"/>
            </mask>
            <path fill="#E0E2DD" d="M-.275-.828l.097.01.098.017.095.025.093.032.09.038.087.043.085.05.082.057.076.063.072.066.066.073.462.533.459.535.46.537.914 1.076.456.538.453.542.905 1.083.45.545.449.545.449.546.445.547.445.547.887 1.1.44.551.44.553.437.555.438.555.433.555.867 1.117.432.559.428.562.429.562.424.562.426.565.424.566.422.568.419.568.418.569.055.08.05.085.043.088.036.091.03.094.024.094.015.097.01.099.002.097-.005.099-.011.097-.018.096-.026.095-.032.093-.038.088-.045.089-.052.084-.057.078-.063.077-.067.07-.074.066-.077.062-.082.054-.085.05-.09.042-.09.037-.093.03-.097.022-.097.015-.098.01-.1.003-.097-.005-.098-.011-.097-.018-.095-.026-.093-.03-.09-.04-.088-.044-.083-.052-.082-.058-.075-.062-.072-.067-.067-.074-.06-.075-.415-.565-.833-1.123-.418-.56-.42-.557-.422-.559-.848-1.11-.426-.555-.427-.552-.43-.552-.43-.55-.433-.55-.87-1.095-.435-.545-.438-.546-.44-.545-.44-.541-.443-.543-.444-.541-.442-.539-.447-.54-.449-.536-.447-.538L1.3 4.63l-.452-.533-.45-.533-.455-.534-.455-.531-.457-.532-.46-.531-.06-.075-.056-.08-.05-.087-.044-.088-.037-.09-.03-.094-.024-.095-.018-.096-.01-.098-.002-.097.004-.098.01-.098.018-.096.024-.095.032-.093.039-.091.043-.087.052-.084.057-.08.062-.076.066-.072.073-.066.077-.062.08-.056.087-.05.088-.042.091-.038.094-.03.094-.024.098-.017.097-.01.1-.003.099.005" mask="url(#b)"/>
            <path fill="#E0E2DD" d="M6.54-1.152l.154.888-.05.07-.053.073-.054.072-.054.072-.056.07-.055.068-.054.068-.06.07-.112.129-.116.128-.118.124-.12.122-.24.234-.123.113-.122.11-.118.104-.006.005-.123.104-.126.105-.124.102-.248.202-.067.054-.033.033-.078.082-.079.08-.06.06-.02.018-.098.093-.1.092-.102.092-.102.09-.103.092-.106.089-.104.087-.108.087-.054.043-.056.041-.102.076-.102.07-.091.065-.107.077-.018.014-.044.029-.062.038-.04.017-.078.032-.084.02-.107.008-.109-.01-.102-.026-.098-.044-.088-.06-.076-.074-.001-.001-.061-.08-.047-.089-.032-.096-.016-.1v-.101l.016-.1.032-.095.047-.09.035-.057.061-.062.129-.125.123-.115.122-.114.126-.11.124-.11.124-.106.126-.104.125-.105.246-.202.246-.197.243-.197.238-.197.117-.096.114-.1L4.337.4 4.34.395l.107-.093.222-.2L4.777 0l.04-.038.025-.032.06-.08.058-.082.003-.004.057-.077.057-.081.056-.084.056-.083.031-.048.026-.034.057-.084.056-.084.01-.015.116-.034.087-.035.03-.04.046-.064.892-.153" mask="url(#b)"/>
        </g>
        <path fill="#294D90" d="M439.213 177.128c-3.422-1.025-12.751 4.09-19.262 15.54-6.51 11.454-20.951 49.381-20.951 49.381l7.83 2.951s26.795-31.5 33.656-46.18c6.86-14.682 2.15-20.667-1.273-21.692"/>
        <path fill="#294D90" d="M436.13 187.118c-3.477.795-9.083 9.905-9.13 23.178-.047 13.272 5.99 53.704 5.99 53.704l8.252-1.289s7.858-40.912 6.627-57.192c-1.23-16.28-8.261-19.197-11.738-18.4"/>
        <path fill="#F5BE96" d="M430.735 114.79s.215 6.46-1.57 11.08c-1.786 4.62 11.433 8.486 13.835.59 0 0-2.421-4.15-1.42-8.997 1.003-4.849-6-10.299-10.845-2.673"/>
        <path fill="#78C6C5" d="M429.046 123s-6.451 5.975-15.046 8.645l2.215 34.48L455.323 168 461 141.631l-19.165-16.338-12.79-2.293"/>
        <path fill="#F5BE96" d="M443.356 91.848c-2.701-3.66-6.852-1.985-8.264 5.936-1 5.621-11.268 7.595-11.09 9.543.885 9.668 8.63 14.968 11.894 14.66 8.365-.787 13.338-17.517 11.838-19.01-3.172-3.158-2.138-8.095-4.378-11.13"/>
        <path fill="#C5CFD6" d="M403 167h67v-43h-67z"/>
        <path fill="#A1ABB1" d="M436 141a7 7 0 1 1 0 14 7 7 0 1 1 0-14"/>
        <path fill="#9D9F9C" d="M317 200l-12 .728L308.192 269l3.336-.036L317 200M331 196l-12 4.008L322.179 269l3.324-.036L331 196M275 200l-12 .728L266.19 269l3.34-.036L275 200"/>
        <path fill="#C5CFD6" d="M308.945 114.044s22.865-1.152 27.039 8.382c4.175 9.533 1.121 59.2-2.435 73.533-1.825 7.345-10.039 10.587-18.912 12.45-8.872 1.864-49.64-1.279-49.64-1.279s-11.392-5.205-2.774-11.954l37.01-34.058 9.712-47.074"/>
        <path fill="#F5BE96" d="M319.463 165.33s1.476-29.913 1.744-32.084c1.041-8.402 1.687-15.86-2.243-19.482-2.193-2.02-4.853-4.713-8.336-6.288-1.856-.84-10.38-.806-15.121 2.092-3.16 1.93-5.73 11.039-6.985 17.098-1.585 7.647-2.522 28.777-2.522 28.777 2.772 8.193 28.772 14.765 33.463 9.887"/>
        <path fill="#D33128" d="M296.309 111.262s-3.45 5.98 1.591 7.876C309.91 123.661 311.331 109 311.331 109c2.854.771 11.228 4.7 12.15 9.964 2.247 12.833 1.336 67.036 1.336 67.036L279 183.37s2.5-39.73 4.148-51.54c2.71-19.418 13.16-20.568 13.16-20.568"/>
        <path fill="#212227" d="M307.97 103.768c2.952 1.773 6.265-7.103 7.614-9.688 1.35-2.586 2.202-5.808.348-8.704-.38-.595-.876-1.175-1.018-1.81-.152-.685.132-1.306.359-1.912 1.435-3.846-1.257-8.44-4.178-12.382-.689-.928-1.512-1.837-2.59-2.423-1.281-.698-2.759-.853-4.136-.849-9.304.033-14.322 6.073-23.587 6.279-2.708.06-5.517-.404-8.23-.367-2.713.038-5.472.684-6.849 2.509-1.377 1.825-.715 5.045 1.844 6.376 1.649.856 3.525.737 5.235.584-2.348 2.049-1.377 6.168 1.419 8.692 2.798 2.524 6.844 3.613 10.482 3.666 2.714.04 5.389-.413 8.13.264 4.718 1.166 10.934 7.232 15.157 9.765"/>
        <path fill="#F5BE96" d="M302.159 117.895c7.72-1.11 8.841-8.56 8.841-8.56l-2.625-11.089c-.408-3.248-4.096-4.981-7.9-3.948-3.8 1.033-4.798 5.31-4.39 8.557l.588 11.958c.407 3.247 3.426 3.378 5.486 3.082"/>
        <path fill="#F5BE96" d="M291.189 111.222c6.39 5.71 13.79-3.849 16.487-7.382 4.026-5.275 6.17-26.331-4.224-30.61-10.393-4.281-22.14 3.534-24.99 9.389-2.85 5.857 8.235 24.587 12.727 28.603"/>
        <path fill="#F5BE96" d="M305.116 92.121c-.44 2.522.415 4.649 1.761 4.782 4.508.442 6.612-.627 7.053-3.149.442-2.522-1.254-4.194-3.688-4.645-2.433-.452-4.683.49-5.126 3.012"/>
        <path fill="#212227" d="M277.646 81.342c1.31-3.097 4.458-5.427 7.734-6.879 2.982-1.321 6.226-2.257 9.435-3.094 3.035-.792 6.378-1.532 9.642-1.338 6.158.364 7.533 7.447 7.452 11.924-.042 2.298 2.103 4.02.488 5.768-.694.749-2.423 1.02-3.523 1.159-1.318.169 2.461 6.942-.185 8.11-.313.139-3.53-1.649-5.699-5.348-1.579-2.695-1.714-6.467-2.456-8.2-.372-.875-1.317-2.363-1.986-2.196-1.058-.187-1.817.556-2.455 1.168-.72.692-1.266 1.571-1.92 2.32-1.134 1.3-2.394 2.516-3.856 3.51-2.524 1.715-6.543 3.1-9.823 1.627-1.754-.788-2.69-2.082-3.138-3.55a.497.497 0 0 1-.2-.312 8.363 8.363 0 0 1-.144-1.784c-.043-.944.033-1.894.159-2.776.032-.213.321-.23.475-.109-.064.153-.126.31-.181.468l.069 1.691a7.037 7.037 0 0 0 .051 2.264c.01.04.022.081.034.122l.016.054.002.082a7.468 7.468 0 0 1-.052-.258c-.34-1.27-.276-2.55-.168-3.813-.24.72-.381 1.479-.405 2.275.034.714.137 1.423.344 2.096a.64.64 0 0 0 .454.118 5.703 5.703 0 0 1-.175-.5l-.101-2.44c.04-.302.103-.6.18-.894.004-.364.016-.723.026-1.074a.226.226 0 0 0-.094-.19"/>
        <path fill="#0E222F" d="M244.37 199l54.745-.888s10.087-.571 17.19-3.833c5.847-2.687 8.695-8.503 8.695-8.503l-1.57-3.419L290.92 170 243 173.054 244.37 199"/>
        <path fill="#F5BE96" d="M297.522 261.123c1.025-1.482.194 10.854-.56 12.308-.534 1.028-5.63 2.261-5.4 1.098 1.245-6.359-.93-10.895-.507-12.105.566-1.628 5.469.142 6.467-1.3M245.522 261.123c1.025-1.482.194 10.854-.56 12.308-.535 1.028-5.63 2.261-5.401 1.098 1.246-6.359-.927-10.895-.506-12.105.567-1.628 5.469.142 6.467-1.3"/>
        <path fill="#0E222F" d="M293.979 171.025c-3.95.752-10.42 16.524-8.692 31.605 1.507 13.155 4.098 65.37 4.098 65.37l11.959-.497s7.138-57.694 7.64-69.393c.501-11.7-11.057-27.838-15.005-27.085M240.978 170.026c-3.95.756-10.418 16.615-8.691 31.779C233.794 215.032 236.27 268 236.27 268l10.186-.295s9.026-58.682 9.528-70.445c.501-11.764-11.057-27.992-15.006-27.234"/>
        <path fill="#F5BE96" d="M316.86 115.036c3.048.042 12.833-2.007 14.897 19.393.951 9.85-.713 26.198-8.205 34.47-8.262 9.12-9.77 1.552-8.495-8.302.794-6.145.146-12.973-1.576-26.418-1.375-10.71.336-19.186 3.379-19.143"/>
        <path fill="#F5BE96" d="M324.051 173.633c1.444-1.493 7.211-5.255-2.88-16.338-4.643-5.1-13.911-12.002-21.8-12.28-8.696-.305-5.502 3.99.214 8.018 3.566 2.512 6.79 6.042 12.924 13.211 4.887 5.712 10.1 8.88 11.542 7.389"/>
        <path fill="#D33128" d="M311.687 148.706s2.414-12.342-.506-27.13c-1.216-6.158 3.84-11.91 11.08-8.616 13.394 6.093 9.129 34.485 8.97 34.5-4.218 4.865-19.544 1.246-19.544 1.246"/>
        <path fill="#F5BE96" d="M293.014 144.654l-.025-.063c-.565-1.44-1.112-3.708-1.112-3.708-.061-.617-.11-1.555-.12-1.638-.162-1.308.172-1.094.232-1.129 1.316-.728 1.855 2.11 3.999 4.327.426.443.988.872 1.5 1.23.537-.01 5.338 1.083 5.85 1.128.316.027 4.41 8.043 1.792 8.318-6.992.736-10.558.684-11.73 1.345-1.823 1.028-3.478 2.345-5.102 3.746-1.395 1.206-5.137 5.173-5.24 4.76-.131-.551.223-1.165.5-1.608 1.04-1.668 2.058-3.322 3.395-4.789l1.306-1.435c.226-.246.642-.769.642-.769s-.521.399-.783.595c-.501.373-.965.878-1.479 1.226-1.515 1.018-5.408 4.914-6.107 5.18-.194.072-.65.386-.753-.035-.143-.59 2.444-3.726 3.196-4.49 1.578-1.604 3.245-3.444 3.663-3.903.05-.057.443-.404.447-.49.006-.134-.464.2-.494.21-.463.175-8.607 5.627-8.591 5.257.04-.84.822-1.63 1.407-2.273 1.48-1.625 3.31-2.852 5.059-4.096.598-.427 1.197-.831 1.782-1.297.091-.073.651-.371.66-.524.005-.096-.405.222-.466.245-.37.142-.85.507-1.27.666-1.514.577-3.113 1.604-4.558 2.419-.586.33-2.118 1.403-2.259 1.157-.458-.793 5.39-4.878 6.545-5.53 2.657-1.5 5.309-2.968 8.114-4.032z"/>
        <path fill="#0E222F" d="M262 167h49v-4h-49z"/>
        <path fill="#0E222F" d="M284 165.999L278.314 117 220 120.755 229.053 166l54.947-.001"/>
        <path fill="#4B64A6" d="M281 167.999L275.315 119 217 122.755 226.052 168l54.948-.001"/>
        <path fill="#0E222F" d="M247.272 138.34c2.777-1.143 6.025.687 7.256 4.089 1.23 3.401-.024 7.087-2.8 8.23-2.777 1.144-6.026-.686-7.255-4.088-1.23-3.403.023-7.087 2.8-8.23"/>
        <path fill="#F5BE96" d="M191.662 100.845c-.105-4.97-32.016-16.592-32.593-9.734-1.232 14.63 2.747 44.576 3.15 52.56.455 8.945 2.731 18.297 2.534 27.17-.263 11.79-1.765 52.013-6.05 75.643-1.58 8.705-15.97 22.005-13.396 22.498 1.655.318 13.18-3.622 18.064-10.658 1.04-1.493.608 10.746 1.42 9.433.684-1.106 2.654-15.809 3.094-16.67 1.274-2.499-.485-7.026.96-12.388 3.61-13.411 11.112-32.696 12.45-42.239 1.088-7.75-2.785-22.674-2.608-23.45 2.315-10.2 7.933-24.616 10.633-35.439 3.647-14.62 2.6-24.534 2.342-36.726"/>
        <g transform="translate(144 90)">
            <mask id="d" fill="#fff">
                <use xlink:href="#c"/>
            </mask>
            <use fill="#F5BE96" xlink:href="#c"/>
            <path fill="#4B64A6" d="M-2 182.165s6.23-19.572 8.773-13.735c2.397 5.5 14.442-4.92 18.334-9.706 0 0 1.023-2.69 2.903-1.35l-4.215 24.535-25.795.256" mask="url(#d)"/>
        </g>
        <g transform="translate(153)">
            <mask id="f" fill="#fff">
                <use xlink:href="#e"/>
            </mask>
            <path fill="#503628" d="M49.477 51.169c.193.293.397.575.603.852 4.421 5.936 10.8 6.705 10.75 7.245-.355 3.975-4.11 11.27-4.56 11.264-.65-.01-1.818-.801-4.263-2.956-1.953-1.72-3.391-3.61-3.562-3.654-.458-.126 1.515 3.101 3.628 5.533a18.299 18.299 0 0 0 3.396 2.993s-1.207 2.964-2.214 4.187c-1.288 1.566-3.441 3.697-5.511 5.21-.69.503-12.313 3.263-18.574 3.682-17.761 1.19-23.12-5.673-23.12-5.673S-.41 65.162.88 40.028c.15-2.936.317-7.47 1.306-10.406C4.988 21.31 3.618 4.062 21.658 1.05 33.513-.931 45.606 7.536 46.47 20.287 48.385 48.54 64.534 48.01 64.534 48.01l-2.322 6.748s-3.472-.17-4.999-.865c-2.34-1.068-4.41-2.612-6.36-4.273.648.809 1.246 1.505 1.713 1.959 2.472 2.4 5.534 4.584 8.773 4.86l.33.315s-6.445.2-10.87-4.085c-.452-.438-.891-.937-1.322-1.5" mask="url(#f)"/>
        </g>
        <path fill="#F5BE96" d="M148.337 93.866c-2.066 9.642 5.902 10.226 9.397 4.306 14.28-24.192 12.435-25.34 17.688-33.995 13.543-22.314-6.52-22.312-14.332-9.56-4.28 6.986-9.473 23.928-12.753 39.25M183.963 37.639c-1.084 1.895-8.826 1.349-13.073-.246-2.53-.95-4.614-4.57-5.491-8.77-2.116-10.125-2.239-17.639 5.441-20.01 0 0 10.692-4.71 15.222 3.114 4.107 7.093 3.236 12.58 1.11 17.338-.577 1.247-2.53 7.384-3.21 8.574"/>
        <path fill="#503628" d="M166.895 4.61c-.728.568-.765 8.987 7.187 14.167 10.946 7.13 11.863 17.045 11.863 17.045s11.97-6.858 9.77-16.648C192.206 3.569 173.447-.482 166.894 4.61"/>
        <path fill="#F5BE96" d="M185.99 41.177c-.025-1.13-.025-6.476-1.008-7.63-3.232-3.808-10.191-5.315-9.935-.614.26 4.057-.272 10.83-.539 14.448-.178 2.426-2.456 4.36-1.055 7.253 1.975 4.07 12.933 4.747 12.536-13.457"/>
        <path fill="#ED9D9F" d="M170.026 111.952c-7.194-1.268-11.658-7.852-10.953-26.333.498-13.038 2.192-24.38 11.633-34.6 2.072-2.244 5.6-4.973 8.796-5.702 4.156-.95 8.028.51 10.27.816 3.261.444 3.704 7.725 4.999 12.919.12.479 3.4 7.639 3.222 8.121-2.267 6.11-4.28 14.687-10.76 26.746-2.774 5.16-11.722 19-17.207 18.033"/>
        <path fill="#F5BE96" d="M169.293 115.953s15.827 48.436 17.627 58.376c.966 5.342 3.298 10.762 3.574 16.211.726 14.22 1.735 54.017.812 63.607-.05.52-2.466 9.109-2.094 14.904.344 5.36 1.92 6.33 2.278 6.843 3.57 5.11 5.906.295 6.43-7.718.377-5.776-.869-14.96-.55-16.247 1.887-7.634 9.74-30.241 10.777-35.07 2.622-12.217-1.236-24.494-5.653-35.253-.884-2.153 3.773-20.13 5.026-39.474 1.08-16.683.566-38.587-19.611-50.094-.923-.525-27.909 4.523-27.909 4.523s1.4 7.739 9.293 19.392"/>
        <g transform="translate(160 91)">
            <mask id="h" fill="#fff">
                <use xlink:href="#g"/>
            </mask>
            <use fill="#F5BE96" xlink:href="#g"/>
            <path fill="#4B64A6" d="M34.526 187.462c-5.69-.088-6.567-8.902-6.437-11.787 0 0-.514-13.69.93-13.5 1.82.242 1.056 5.722 1.244 8.538.311 4.712 1.442 8.552 3.476 8.491 4.425-.131 2.463-11.229 3.066-17.01 0 0 2.202-3.548 2.61 1.586.399 4.972.73 23.769-4.889 23.682" mask="url(#h)"/>
        </g>
        <path fill="#F5BE96" d="M188.59 47.156s-2.617 21.6 3.17 28.886c7.808 9.825 17.233 17.255 18.723 16.949 12.332-2.528 15.712-31.95 17.5-42.264.244-1.403-2.195-9.695-5.283-.332-3.198 9.686-12.568 28.654-12.568 28.654s-13.07-32.06-21.542-31.893"/>
        <path fill="#F5BE96" d="M228.88 49.37s11.597-2.418 20.058-4.033c0 0 1.812-.768-1.494-.61-3.306.156-7.64.538-7.64.538s8.07-2.176 10.626-2.778c2.557-.604-3.952-.968-10.344 1.057 0 0 7.609-2.415 10.361-3.562 1.68-.7-3.382-.597-10.825 1.873 0 0 5.643-2.259 8.63-3.9 1.69-.93 1.487-2.369-9.42 2.375-1.104.48-2.054 1.079-3.446 1.112 0 0 2.295-1.525 2.119-3.824 0 0-.757-.465-1.496.568-.645.903-1.942 2.148-4.42 3.016-2.475.867-5.015.853-5.988 3.83-2.426 7.405 3.279 4.339 3.279 4.339"/>
        <path fill="#D33128" d="M172.225 46.02s-11.727 12.18-13.493 53.772c-1.839 43.328.366 93.593.366 93.593l52.9 3.615s11.128-80.705-19.092-105.193l3.301-13.03s-12.186-13.485-6.23-33.554l-3.55-.223s-3.083 13.21-10.94 13.651c-7.856.442-.285-12.573-.285-12.573l-2.977-.058"/>
        <path fill="#4B64A6" d="M153 51.07L188.478 42 202 94.93 166.521 104 153 51.07"/>
        <path fill="#F5BE96" d="M171.33 68.453s-16.296 14.713-20.481 19.565c-5.58 6.467-1.826 15.747 1.618 14.932 6.504-1.538 19.241-16.178 25.657-30.09 6.725-14.581-6.793-4.407-6.793-4.407"/>
        <path fill="#F5BE96" d="M176.52 73.627s6.44-10.17 12.319-17.133c0 0 .94-1.821-1.719.528-2.657 2.347-6.008 5.566-6.008 5.566s5.126-7.14 6.815-9.336c1.69-2.195-4.054 1.901-7.884 7.795 0 0 4.556-7.02 5.996-9.77.88-1.684-3.294 1.807-7.668 8.757 0 0 3.023-5.573 4.286-8.871.714-1.869-.55-2.862-6.108 8.205-.564 1.12-.907 2.229-2.051 3.193 0 0 .77-2.743-1.124-4.43 0 0-.99.146-.826 1.455.144 1.142.002 2.993-1.42 5.343-1.422 2.347-1.866 3.83-2.122 7.037-.255 3.208 7.514 1.66 7.514 1.66"/>
        <path fill="#FBE0BD" d="M0 172.889h509.84v-6.303H0z"/>
        <path fill="#ED9D9F" d="M104.463 167.331s1.475-29.914 1.744-32.086c1.04-8.401 1.687-15.86-2.244-19.482-2.191-2.02-4.853-4.712-8.335-6.287-1.856-.84-10.38-.806-15.122 2.09-3.16 1.932-5.728 11.04-6.986 17.1-1.583 7.646-2.52 28.777-2.52 28.777 2.772 8.194 28.773 14.764 33.463 9.888"/>
        <path fill="#293177" d="M81.31 113.262s-3.45 5.98 1.59 7.876C94.912 125.66 96.333 111 96.333 111c2.854.771 11.227 4.7 12.15 9.964 2.247 12.833 1.335 67.036 1.335 67.036L64 185.37s2.501-39.731 4.149-51.541c2.708-19.417 13.16-20.567 13.16-20.567"/>
        <path fill="#212227" d="M91.565 105.496c2.25 2.496 7.848-4.983 9.838-7.054 1.989-2.073 3.694-4.884 2.786-8.138-.188-.668-.483-1.356-.436-1.995.051-.69.491-1.198.873-1.71 2.426-3.24 1.217-8.334-.39-12.872-.38-1.07-.89-2.157-1.728-3.01-.997-1.016-2.33-1.572-3.615-1.95-8.682-2.549-15.067 1.775-23.759-.599-2.54-.693-5.028-1.912-7.567-2.628-2.54-.716-5.293-.87-7.093.475-1.8 1.344-2.093 4.574-.084 6.543 1.293 1.267 3.076 1.673 4.713 2.003-2.768 1.287-3.029 5.455-1.136 8.617 1.893 3.164 5.355 5.317 8.732 6.375 2.518.789 5.138 1.102 7.503 2.503 4.068 2.412 8.144 9.873 11.363 13.44"/>
        <path fill="#F5BE96" d="M88.158 119.894c7.72-1.11 8.842-8.559 8.842-8.559l-2.625-11.09c-.408-3.247-4.096-4.98-7.9-3.947-3.8 1.032-4.798 5.31-4.39 8.558l.589 11.957c.407 3.248 3.425 3.379 5.484 3.081"/>
        <path fill="#F5BE96" d="M68.183 82.396s.75 16.111 5.07 21.02c0 0 3.2 5.502 12.958 7.584 0 0 11.932-23.742 1.535-26.572-23.007-6.26-19.563-2.032-19.563-2.032"/>
        <path fill="#212227" d="M74.15 99.31c2.644 6.527 5.78 9.057 10.25 9.618 3.944.497 7.774-1.708 9.486-2.958 5.45-3.984 11.462-23.96 2.616-31.138-8.849-7.18-22.54-2.948-27.015 1.942-4.478 4.892 2.368 16.87 4.663 22.536"/>
        <path fill="#212227" d="M68.785 76.624c2.115-2.539 5.754-3.844 9.267-4.29 3.2-.404 6.535-.373 9.812-.26 3.099.107 6.473.348 9.51 1.445 5.731 2.064 5.035 9.095 3.694 13.274-.689 2.143.856 4.36-1.168 5.548-.868.51-2.584.279-3.665.102-1.295-.211.373 7.203-2.464 7.556-.337.043-2.879-2.535-3.888-6.613-.735-2.97.203-6.547-.01-8.381-.107-.925-.581-2.585-1.262-2.617-.95-.473-1.88.013-2.657.409-.876.447-1.642 1.119-2.471 1.638-1.443.903-2.979 1.69-4.646 2.215-2.873.902-7.073 1.077-9.763-1.224-1.44-1.23-1.96-2.707-1.971-4.209a.486.486 0 0 1-.1-.349 8.08 8.08 0 0 1 .367-1.715c.225-.898.566-1.767.934-2.56.09-.19.369-.126.48.03a7.866 7.866 0 0 0-.303.389l-.413 1.607a6.843 6.843 0 0 0-.59 2.137 2.306 2.306 0 0 0-.003.124v.056l-.02.078c.005-.087.013-.172.023-.258.036-1.286.458-2.47.917-3.624a7.692 7.692 0 0 0-1.025 2.021 8.339 8.339 0 0 0-.267 2.064.643.643 0 0 0 .398.237 5.052 5.052 0 0 1-.026-.518l.593-2.317c.125-.272.267-.534.424-.79.107-.338.219-.673.328-.999a.228.228 0 0 0-.035-.206"/>
        <path fill="#4B64A6" d="M30.37 201l54.746-.888s10.087-.57 17.19-3.835c5.847-2.685 8.694-8.501 8.694-8.501l-1.57-3.419L76.923 172 29 175.054 30.37 201"/>
        <path fill="#F5BE96" d="M84.522 264.123c1.026-1.482.193 10.854-.561 12.308-.534 1.028-5.629 2.261-5.4 1.098 1.245-6.36-.926-10.897-.506-12.105.566-1.628 5.469.142 6.467-1.3M30.522 264.123c1.026-1.482.193 10.854-.561 12.308-.534 1.028-5.629 2.261-5.4 1.098 1.245-6.36-.926-10.897-.506-12.105.566-1.628 5.469.142 6.467-1.3"/>
        <path fill="#C5CFD6" d="M72 166.999l-3.768-44.211L8 122l9.053 45L72 166.999"/>
        <path fill="#A5ADB3" d="M77 166.999l-4.467-44.019L13 122l9.053 45 32.454-.001H77"/>
        <path fill="#FFFFFE" d="M75 162l-4.977-34.219L19 126l6.626 35.864L75 162"/>
        <path fill="#4B64A6" d="M79.978 172.025c-3.95.754-10.418 16.524-8.691 31.605 1.507 13.155 4.099 65.37 4.099 65.37l11.959-.498s7.138-57.694 7.64-69.39c.5-11.7-11.057-27.84-15.007-27.087M28.493 175.029c-3.957.756-11.983 14.677-10.252 29.828 1.51 13.217 3.99 66.143 3.99 66.143l10.204-.295s9.044-58.635 9.547-70.388c.502-11.754-9.532-26.044-13.489-25.288"/>
        <path fill="#ED9D9F" d="M101.86 116.036c3.048.043 12.832-2.007 14.898 19.392.95 9.85-.713 26.199-8.207 34.472-8.26 9.118-9.77 1.551-8.495-8.304.794-6.144.147-12.971-1.575-26.416-1.375-10.712.335-19.186 3.38-19.144"/>
        <path fill="#ED9D9F" d="M111.05 175.633c1.444-1.493 7.212-5.254-2.878-16.337-4.644-5.102-13.911-12.003-21.8-12.28-8.696-.305-5.504 3.99.214 8.017 3.564 2.512 6.789 6.042 12.925 13.21 4.886 5.713 10.097 8.881 11.54 7.39"/>
        <path fill="#293177" d="M97.687 151.706s2.413-12.34-.506-27.129c-1.216-6.16 3.84-11.91 11.08-8.617 13.395 6.093 9.129 34.484 8.97 34.5-4.219 4.865-19.544 1.246-19.544 1.246"/>
        <path fill="#ED9D9F" d="M77.014 146.653l-.024-.062c-.567-1.441-1.114-3.707-1.114-3.707-.06-.618-.11-1.556-.12-1.639-.162-1.307.173-1.095.234-1.128 1.316-.73 1.853 2.11 3.997 4.325.428.443.989.873 1.5 1.231.538-.01 5.34 1.082 5.851 1.127.316.028 4.41 8.044 1.792 8.32-6.993.734-10.559.682-11.73 1.343-1.823 1.03-3.479 2.345-5.102 3.746-1.395 1.207-5.138 5.174-5.24 4.761-.132-.551.223-1.167.5-1.608 1.04-1.67 2.057-3.322 3.395-4.79l1.306-1.433c.225-.246.64-.77.64-.77s-.52.399-.781.594c-.502.373-.964.879-1.479 1.226-1.515 1.019-5.408 4.914-6.107 5.181-.193.072-.652.385-.755-.036-.142-.59 2.446-3.725 3.197-4.488 1.579-1.606 3.247-3.445 3.664-3.904.05-.056.442-.405.446-.49.007-.133-.462.2-.494.21-.462.175-8.606 5.626-8.59 5.256.04-.84.821-1.63 1.407-2.272 1.48-1.625 3.31-2.852 5.057-4.097.599-.427 1.199-.83 1.785-1.296.09-.074.651-.371.66-.525.004-.096-.406.222-.467.246-.37.142-.85.506-1.27.666-1.515.576-3.113 1.603-4.558 2.419-.586.33-2.119 1.402-2.26 1.156-.457-.793 5.39-4.878 6.546-5.53 2.657-1.5 5.308-2.967 8.114-4.032z"/>
        <path fill="#9D9F9C" d="M73 208l-12 .81L64.192 285l3.336-.04L73 208M114 201l-12 4.666L105.179 286l3.323-.043L114 201M45 205l-12 .811L36.192 282l3.336-.042L45 205"/>
        <path fill="#C5CFD6" d="M65.126 116.093c10.654-11.436 58.244-10.16 61.587.109 3.341 10.269.193 73.735-9.634 89.696-8.895 14.45-40.19 4.926-49.324 6.077-9.136 1.148-38.303-6.055-38.303-6.055s-11.033-6.415-1.709-12.66l35.042-8.44s-8.314-57.29 2.34-68.727"/>
        <path fill="#0A090B" d="M432.98 272.194s-1.903 2.398-4.916 4.691L427 280l17-.399-.265-2.023s-4.1-3.844-4.522-6.024l-.53 1.267s-.377-1.873-2.588-1.82c-2.212.054-2.49 1.886-2.49 1.886l-.626-.693"/>
        <g transform="translate(427 272)">
            <mask id="j" fill="#fff">
                <use xlink:href="#i"/>
            </mask>
            <path fill="#E0E2DD" d="M22.866 5.856l.115.018.113.023.11.032.108.04.102.048.099.055.093.061.088.07.082.076.074.081.066.086.059.091.051.095.042.099.036.101.023.103.017.106.006.106-.002.106-.014.105-.02.103-.031.104-.04.1-.048.095-.055.094-.066.088-.07.082-.08.076-.085.073-.091.064-.098.06-.102.05-.104.042-.11.035-.112.026-.114.02-.114.01-.73.037-.73.039-.726.04-.729.041-.727.045-.728.046-.726.048-.729.05-.726.05-.727.055-.727.055-.726.057-.727.057-.725.062-.727.063-.725.062-.726.066-.727.067-.726.069-.725.07-.726.074-.724.071-.726.075-.723.08-.726.077-.724.08-.725.082-.723.082-.725.085-.724.086-.725.088-.724.089-.116.01-.116.001-.114-.008-.114-.015-.114-.024-.11-.031-.106-.04-.104-.048-.099-.057-.092-.063-.089-.068-.08-.076-.075-.082-.066-.086-.059-.09-.051-.096-.042-.098-.034-.104-.024-.102-.015-.104-.008-.107.005-.105.011-.105.022-.106.03-.102.04-.098.05-.097.056-.092.065-.088.07-.084.081-.077.085-.07.091-.066.098-.057.1-.051.107-.043.11-.034.111-.027.113-.018.73-.09.729-.088.73-.087.732-.085.73-.085.731-.082.731-.081.73-.079.733-.077.732-.077.73-.073.735-.074.732-.072.733-.069.732-.067.732-.067.735-.064.734-.063.732-.061.736-.058.733-.058.733-.056.734-.054.737-.051.735-.05.735-.05.735-.046.735-.043.736-.045.737-.04.736-.04.734-.036.116-.002.114.006" mask="url(#j)"/>
            <path fill="#E0E2DD" d="M1.808 2.808l.864.34.034.077.034.082.032.08.034.08.028.08.03.082.028.079.026.081.05.16.048.158.042.16.038.158.036.159.034.156.028.157.027.156.025.148.001.007.022.154.02.154.02.153.035.305.01.081.012.043.026.106.026.103.018.082.004.024.05.255.025.13.02.13.022.128.017.131.018.129.015.13.007.068.004.066.008.122.004.117.005.107.008.127.001.02.002.05-.003.07-.006.04-.019.08-.029.078h-.001l-.053.09-.07.08-.081.07-.094.053-.102.04-.108.023-.106.008-.106-.01-.102-.024-.096-.04-.089-.052-.077-.066-.066-.075-.052-.084-.03-.058-.02-.08-.036-.17-.033-.159-.029-.157-.025-.157-.027-.156-.021-.156-.022-.154-.02-.154-.037-.303-.034-.3-.036-.296-.037-.294-.018-.144-.022-.143-.021-.144-.002-.004-.02-.136-.025-.14-.024-.14-.03-.139-.01-.053-.014-.037-.036-.09-.04-.088-.001-.005-.036-.084-.037-.09-.041-.089-.04-.088-.026-.05-.017-.038-.04-.089-.041-.088-.009-.017.036-.11.02-.087-.019-.046-.03-.07.372-.793" mask="url(#j)"/>
        </g>
        <path fill="#0A090B" d="M294.022 271.804c.135-.45.974-3.098-1.763-1.015-1.4 1.066-6.193 3.405-12.37 2.46-2.864-.438-3.366-.39-4.926.452-1.083.584-.604 1.719-.963 2.478 17.575 2.269 25.163-.836 26-1.293-.196-2.41-1.374-2.282-.886-3.354-.375-.612-3.854-.087-5.092.272"/>
        <g transform="translate(274 270)">
            <mask id="l" fill="#fff">
                <use xlink:href="#k"/>
            </mask>
            <path fill="#E0E2DD" d="M17.974 4.903l1.2.178s-1.405-.235-1.2-.178zM6.565 6.42c4.21.547 8.598.447 12.831-.588-1.527-.436-2.974-.73-4.509-1.011-1.848-.338-3.482.164-4.104.319-1.164.309-1.731.605-2.356.778-.616.171-1.24.34-1.861.502zm14.693-1.109a26.001 26.001 0 0 0 1.575-.547c1.755-.586 4.197-1.617 4.289-1.654 1.774-.769 5.346.749-2.023 3.232-9.1 3.955-18.97 3.076-28.314.874l-3.185-.97-.295-.452 1.358-.103c1.456.245 2.891.515 4.354.808L-2.77 5.59c-.455-.446-.432-.649.153-1.082 1.14-.605 1.54.181 1.54.181a42.992 42.992 0 0 0 5.404 1.376c1.69-.319 7.802-2.519 12.108-1.6 0 0 2.325.267 3.52.536.438.097.872.2 1.302.31z" mask="url(#l)"/>
        </g>
        <path fill="#0A090B" d="M240.021 271.804c.136-.45.975-3.098-1.762-1.015-1.401 1.066-6.193 3.405-12.372 2.46-2.863-.438-3.364-.39-4.925.452-1.083.584-.603 1.719-.962 2.478 17.574 2.269 25.162-.836 26-1.293-.197-2.41-1.374-2.282-.886-3.354-.376-.612-3.854-.087-5.093.272"/>
        <g transform="translate(220 270)">
            <mask id="n" fill="#fff">
                <use xlink:href="#m"/>
            </mask>
            <path fill="#E0E2DD" d="M18.233 4.903l1.2.178s-1.405-.235-1.2-.178zM6.823 6.42c4.211.547 8.598.447 12.832-.588-1.528-.436-2.976-.73-4.51-1.011-1.849-.338-3.482.164-4.104.319-1.164.309-1.732.605-2.355.778-.617.171-1.24.34-1.863.502zm14.694-1.109a25.969 25.969 0 0 0 1.574-.547c1.756-.586 4.198-1.617 4.29-1.654 1.773-.769 5.345.749-2.023 3.232-9.1 3.955-18.97 3.076-28.314.874l-3.187-.97-.294-.452 1.358-.103c1.455.245 2.892.515 4.353.808L-2.51 5.59c-.454-.446-.432-.649.154-1.082 1.14-.605 1.538.181 1.538.181a43.01 43.01 0 0 0 5.406 1.376c1.69-.319 7.802-2.519 12.108-1.6 0 0 2.323.267 3.519.536.438.097.872.2 1.303.31z" mask="url(#n)"/>
        </g>
        <path fill="#0A090B" d="M79.021 273.804c.136-.45.974-3.097-1.762-1.015-1.401 1.067-6.193 3.406-12.37 2.46-2.864-.438-3.366-.39-4.927.453-1.083.583-.603 1.717-.962 2.477 17.574 2.268 25.162-.835 26-1.293-.197-2.41-1.375-2.282-.886-3.355-.375-.611-3.854-.087-5.093.273"/>
        <g transform="translate(58 273)">
            <mask id="p" fill="#fff">
                <use xlink:href="#o"/>
            </mask>
            <path fill="#E0E2DD" d="M18.267 4.798l1.199.177s-1.404-.234-1.2-.177zM6.858 6.314c4.21.548 8.597.448 12.83-.588-1.527-.435-2.974-.729-4.508-1.01-1.85-.338-3.482.165-4.105.319-1.165.308-1.732.604-2.355.777-.618.171-1.24.341-1.862.502zM21.55 5.207a27.737 27.737 0 0 0 1.574-.548c1.757-.586 4.199-1.617 4.29-1.654 1.774-.769 5.346.749-2.023 3.232-9.1 3.954-18.97 3.075-28.314.873l-3.185-.97-.296-.452 1.358-.102c1.456.245 2.893.514 4.354.807l-1.785-.909c-.456-.445-.432-.648.153-1.081 1.14-.605 1.54.182 1.54.182A43.338 43.338 0 0 0 4.62 5.96c1.69-.32 7.802-2.52 12.109-1.601 0 0 2.323.269 3.519.536.437.098.873.2 1.302.312z" mask="url(#p)"/>
        </g>
        <path fill="#0A090B" d="M25.02 273.804c.136-.45.975-3.097-1.762-1.015-1.4 1.067-6.192 3.406-12.371 2.46-2.863-.438-3.364-.39-4.927.453-1.082.583-.601 1.717-.96 2.477 17.573 2.268 25.162-.835 26-1.293-.197-2.41-1.375-2.282-.887-3.355-.375-.611-3.854-.087-5.093.273"/>
        <g transform="translate(5 273)">
            <mask id="r" fill="#fff">
                <use xlink:href="#q"/>
            </mask>
            <path fill="#E0E2DD" d="M17.524 4.798l1.2.177s-1.404-.234-1.2-.177zM6.116 6.314c4.21.548 8.598.448 12.83-.588-1.527-.435-2.974-.729-4.508-1.01-1.85-.338-3.483.165-4.105.319-1.164.308-1.731.604-2.356.777-.616.171-1.238.341-1.861.502zm14.693-1.107a27.737 27.737 0 0 0 1.574-.548c1.756-.586 4.198-1.617 4.29-1.654 1.773-.769 5.345.749-2.023 3.232-9.1 3.954-18.97 3.075-28.315.873l-3.185-.97-.296-.452 1.358-.102c1.456.245 2.892.514 4.355.807l-1.786-.909c-.455-.445-.432-.648.153-1.081 1.141-.605 1.54.182 1.54.182A43.305 43.305 0 0 0 3.879 5.96c1.69-.32 7.8-2.52 12.107-1.601 0 0 2.323.269 3.52.536.438.098.872.2 1.303.312z" mask="url(#r)"/>
        </g>
    </g>
</svg>
